<?xml version="1.0" encoding="UTF-8"?>
<svg width="100pt" height="100pt" version="1.1" viewBox="0 0 100 100" xmlns="http://www.w3.org/2000/svg">
 <path d="m67.32 73.871c0.85156 0.39453 1.3086 0.78516 1.3711 1.1758-0.0625 0.39453-0.51953 0.80078-1.3711 1.2266-1.7305 0.78516-4.6211 1.1758-8.6719 1.1758-0.45703 0-0.6875-0.80078-0.6875-2.4023 0-0.88281 0.097656-1.5352 0.29297-1.9609 0.13281-0.26172 0.26172-0.39453 0.39453-0.39453 4.0469 0.003906 6.9414 0.39844 8.6719 1.1797zm-8.625-10c-0.45703 0-0.6875-0.78516-0.6875-2.3516 0-1.6016 0.23047-2.4023 0.6875-2.4023 4.0508 0 6.9258 0.41016 8.6211 1.2266 0.88281 0.39453 1.3398 0.78516 1.3711 1.1758-0.03125 0.39062-0.48828 0.78516-1.3711 1.1758-1.6953 0.78516-4.5703 1.1758-8.6211 1.1758zm8.625-16.91c0.88281 0.39453 1.3398 0.78516 1.3711 1.1758-0.03125 0.39453-0.48828 0.78516-1.3711 1.1758-1.6953 0.78516-4.5703 1.1758-8.6211 1.1758-0.45703 0-0.6875-0.78516-0.6875-2.3555 0-1.6016 0.23047-2.4023 0.6875-2.4023 4.0469 0.003906 6.9219 0.41406 8.6211 1.2305zm-29.301-9.0195c-1.4023-0.29688-2.1055-0.91406-2.1055-1.8633 0-0.91406 0.65234-1.5859 1.9609-2.0117 0.94531-0.35938 1.9102-0.53906 2.8906-0.53906 2.5781-0.066406 4.8359 0.03125 6.7656 0.29297 1.2383 0.16406 2.3828 0.44141 3.4297 0.83203 1.3711 0.48828 2.4961 1.1914 3.3789 2.1094 1.1094 1.1094 1.6641 2.4688 1.6641 4.0664 0.03125 1.3711-0.27734 2.6641-0.93359 3.8711-0.84766 1.5039-2.2344 2.9883-4.1641 4.4609-0.35938 0.29688-1.7305 1.2578-4.1133 2.8945-1.5039 0.98047-2.5977 1.8125-3.2812 2.5l-0.93359 1.1289c-0.19141 0.39453-0.32422 0.78125-0.39062 1.1758-0.03125 0.23047 0.015625 0.45703 0.14453 0.6875 0.10156 0.23047 0.35938 0.50781 0.78516 0.83203 0.42578 0.35938 1.3398 0.96484 2.7422 1.8125 1.3047 0.75391 2.3008 1.4375 2.9883 2.0586 1.1445 1.0117 1.8594 2.1055 2.1562 3.2852 0.32422 1.1445 0.29297 2.3203-0.10156 3.5273l-0.19531 0.73438-0.39453 0.83203c-0.23047 0.42578-0.55469 0.83203-0.98047 1.2266-0.42578 0.42578-1.0781 0.93359-1.9609 1.5195-1.3711 0.88281-2.1211 1.5195-2.2539 1.9102l-0.050782 0.097656c-0.35938 0.75391-0.44141 1.3711-0.24219 1.8633 0.03125 0.12891 0.40625 0.6875 1.1289 1.668 0.75 0.91406 1.1289 1.8281 1.1289 2.7422 0 0.26172-0.066406 0.65234-0.19531 1.1758l-0.097657 0.19531-0.097656-0.19531c-0.13281-0.58984-0.23047-0.94531-0.29688-1.0781-0.35938-0.71875-0.86328-1.3555-1.5195-1.9102-0.88281-0.78516-1.4375-1.3555-1.6641-1.7148-0.35938-0.52344-0.53906-1.0977-0.53906-1.7148 0.03125-0.42578 0.050781-0.73437 0.050781-0.93359l0.24219-0.93359-0.050782 0.097656c0.19531-0.75391 0.60547-1.4219 1.2266-2.0117 0.03125-0.03125 0.55469-0.50781 1.5664-1.4219 0.71875-0.58984 1.2109-1.0273 1.4727-1.3242l0.44141-0.6875c0.097656-0.23047 0.16016-0.48828 0.19531-0.78516 0.16406-0.75 0.14453-1.3711-0.050781-1.8633-0.13281-0.48828-0.52344-1.0156-1.1758-1.5664-0.42578-0.32812-1.2578-0.83203-2.4961-1.5195-1.3711-0.6875-2.4688-1.3086-3.2852-1.8633-0.75-0.52344-1.3711-1.1289-1.8594-1.8125-0.65234-0.91406-0.94922-1.9453-0.88281-3.0898 0.03125-0.98047 0.27734-1.9102 0.73438-2.793l0.6875-1.2266 0.88281-1.0781c0.75391-0.78516 2.0234-1.8281 3.8203-3.1367 1.7656-1.2422 3.0547-2.1875 3.8672-2.8438 1.4375-1.0781 2.418-2.1094 2.9414-3.0898 0.26172-0.52344 0.39062-1.0117 0.39062-1.4688-0.03125-0.45703-0.17969-0.81641-0.4375-1.0781-0.62109-0.71875-1.9805-1.2266-4.0664-1.5195-1.7305-0.23047-3.7383-0.29297-6.0273-0.19531-1.043 0.015625-1.9922-0.097656-2.8398-0.32812zm48.703-20.883 0.050782-1.5195c-0.03125-1.0117-0.32422-1.9102-0.88281-2.6953-0.88281-1.4023-2.4805-2.5156-4.8047-3.332-2.8438-0.94531-6.8438-1.4883-12.004-1.6172-2.1211-0.035156-5.6836 0.0625-10.68 0.29297-2.2227 0.13281-3.8203 0.17969-4.8008 0.14844h-4.3594c-5.5859-0.03125-10.098 0.17969-13.523 0.63672-1.1758 0.13281-2.2852 0.3125-3.3281 0.53906 0.39062 0.12891 0.75391 0.27734 1.0781 0.44141 0.29297 0.13281 0.62109 0.32812 0.98047 0.58984 0.23047 0.16406 0.53906 0.39062 0.93359 0.6875 0.58984 0.58984 1.0781 1.1445 1.4727 1.6641l1.0742 1.8125 0.6875 1.8633c0.48828 1.4688 0.85156 2.4336 1.0781 2.8906 0.097657 0.26172 0.22656 0.48828 0.39063 0.6875l0.10156 0.050781 0.34375 0.097656c0.52344 0.066406 1.4531 0.082031 2.793 0.050781 1.5352-0.066406 2.5977-0.082031 3.1836-0.050781 0.81641 0 2.8125-0.082031 5.9805-0.24609l0.13281-0.050781 21.41-0.44141c0.51953 0 1.2734 0.03125 2.2539 0.097656 1.9609 0.13281 3.3477 0.19531 4.1641 0.19531 1.4023 0 2.6133-0.11328 3.6289-0.34375 1.1094-0.29297 1.8594-0.73437 2.2539-1.3203l0.24609-0.48828zm-10.043-5.8828c0.32422 0.097657 0.58984 0.26172 0.78125 0.48828 0.32422 0.32813 0.40625 0.71875 0.24219 1.1758-0.16016 0.48828-0.45703 0.78516-0.88281 0.88281-0.29687 0.097656-0.57031 0.097656-0.83594 0-1.5039-0.29297-2.6133-0.52344-3.332-0.6875l-7.9375-0.58984c-2.6797-0.097656-4.7539-0.19531-6.2266-0.29687-1.1094-0.12891-1.9258-0.27734-2.4492-0.44141l-0.39062-0.19531 0.44141-0.19531c0.48828-0.19531 1.2891-0.35938 2.3984-0.48828 1.8945-0.26172 3.9727-0.45703 6.2266-0.58984l2.3516-0.097656 5.9805 0.29297c0.75781 0.17188 1.9688 0.41797 3.6328 0.74219zm-61.539 66.57-0.14453-0.34375-0.48828-0.6875 0.58594 1.0781c-0.23047 0.16406-0.39062 0.47266-0.48828 0.93359l-0.097657 0.34375-0.050781 0.34375v0.63672c0.0625 1.2109 0.4375 2.4688 1.125 3.7734 0.23047 0.45703 0.58984 0.96484 1.0781 1.5195 0.35938 0.35938 0.76953 0.63672 1.2266 0.83203 0.61719 0.23047 1.1758 0.375 1.6641 0.44141 0.39453 0 0.75391-0.082032 1.0781-0.24609 0.71875-0.32422 1.3203-1.1914 1.8125-2.5977 0.65234-1.8633 1.0273-4.2656 1.1289-7.207-0.55469 0.097656-1.2266 0.19531-2.0078 0.29297l-3.7266 0.34375c-0.85156 0.097656-1.4531 0.19531-1.8125 0.29297l-0.73438 0.14844zm12.297-63.875-0.63672 0.29688c-1.7656 0.81641-3.168 2.1875-4.2148 4.1172-0.39453 0.6875-0.78516 1.7148-1.1758 3.0898-0.26172 0.75391-0.53906 1.9102-0.83594 3.4805-0.39453 2.6797-0.53906 5.1641-0.44141 7.4492 0 1.9297 0.21484 4.5586 0.63672 7.8945 0.42578 2.9414 0.93359 5.6523 1.5195 8.1367 0.48828 2.3203 1.1758 5.0977 2.0586 8.332 0.51953 1.8945 1.3203 4.7734 2.3984 8.6289l0.63672 2.3047c0.23047 0.75 0.39453 1.5859 0.48828 2.5 0.19531 1.4062 0.32422 3.0547 0.39453 4.9492 0 4.1836-0.46094 7.6133-1.3711 10.293-0.32422 0.85156-0.76953 1.7461-1.3203 2.6953-0.26172 0.39453-0.53906 0.75-0.83203 1.0781 0.71875 0.03125 1.4844 0.097656 2.3008 0.19531l10.387 0.88281 9.8008 0.097657 9.1133-0.53906c2.0586-0.19531 4.9648-0.44141 8.7227-0.73438 3.168-0.39453 5.6172-0.91406 7.3516-1.5664 0.066406-0.03125 0.32422-0.14844 0.78125-0.34375 0.32812-0.097656 0.55859-0.21484 0.6875-0.34375 0.19531-0.097656 0.57031-0.39453 1.1289-0.88281 0.78125-0.78516 1.3906-1.5859 1.8125-2.4023 0.91406-1.6641 1.6016-3.6758 2.0586-6.0273 0.35547-1.9922 0.57031-4.0547 0.63672-6.1758 0.03125-1.2422-0.050782-3.1875-0.24219-5.832l-0.88281-10.539c-0.32813-2.5508-0.53906-4.0352-0.64063-4.4609-0.29297-1.7656-0.55469-3.1055-0.78125-4.0195-0.13281-0.39062-0.51953-1.5508-1.1758-3.4805-0.91406-2.3203-1.6484-4.3945-2.2031-6.2266-1.1758-3.7578-1.6328-6.8633-1.3711-9.3125 0.13281-1.6367 0.55859-2.9727 1.2734-4.0195l-20.527 0.6875c-1.4023 0.12891-2.4492 0.21484-3.1367 0.24609-1.2383 0.097657-2.2852 0.12891-3.1367 0.097657l-3.1367 0.097656c-1.6016 0.066406-2.793 0.050781-3.5742-0.050781-0.88281-0.066406-1.7148-0.39453-2.4961-0.98047-0.62109-0.52344-1.1445-1.1914-1.5664-2.0117-0.45703-0.98047-0.88281-2.1211-1.2734-3.4336-0.48828-1.207-0.89844-2.043-1.2266-2.5l-0.78516-0.93359-0.48828-0.34375c-0.19531-0.19531-0.35938-0.3125-0.48828-0.34375l-0.48828-0.24609-0.88281-0.19531-0.88281-0.050781c-0.58984 0.03125-1.0273 0.11328-1.3242 0.24609zm1.4688-4.8008h0.63672c1.7969-0.6875 3.8047-1.2422 6.0234-1.668 3.4648-0.65234 8.0547-1.0781 13.77-1.2734l4.3594-0.14844c0.91406-0.03125 2.4688-0.14453 4.6523-0.34375 4.418-0.39062 8.043-0.60547 10.883-0.63672 2.6133 0 4.6875 0.066406 6.2266 0.19531 2.4492 0.23047 4.7188 0.67188 6.8086 1.3203 1.3711 0.45703 2.5312 0.99609 3.4805 1.6172 1.3047 0.85156 2.3359 1.8477 3.0859 2.9883 0.88281 1.3398 1.3398 2.7617 1.3711 4.2656l0.050781 1.1289c0 0.48828-0.03125 0.88281-0.097656 1.1758-0.16016 0.94531-0.47266 1.7812-0.92969 2.5-0.52344 0.75391-1.1914 1.3711-2.0117 1.8633l-1.1758 0.58984c-0.52344 0.19531-0.89844 0.3125-1.1289 0.34375-1.2734 0.35938-2.793 0.53906-4.5586 0.53906l-5.8789-0.14844c-0.58984 1.2422-0.85156 2.6328-0.78516 4.168 0.10156 2.2539 0.83594 5.082 2.2031 8.4805 0.42578 1.1094 1.2734 3.1055 2.5508 5.9805 0.58984 1.3398 1.0742 2.5664 1.4688 3.6758l1.0781 4.2656c0.26172 0.98047 0.53906 2.5312 0.83594 4.6562 0.19531 1.1445 0.42578 2.8438 0.6875 5.0977l0.58984 5.5391c0.26172 2.4844 0.39063 4.5586 0.39063 6.2266 0 2.3867-0.17969 4.6758-0.53906 6.8633-0.55469 2.9062-1.3555 5.3438-2.3984 7.3047-0.13281 0.26172-0.50781 0.86719-1.1289 1.8125l-0.73438 0.88281-1.6641 1.5703-1.5195 1.0273-1.5195 0.63672c-2.1562 0.81641-4.9961 1.4688-8.5234 1.9609-3.8555 0.32812-6.7461 0.60547-8.6758 0.83594l-9.5078 0.63672-10.094-0.050781-10.727-0.92969c-1.6992-0.19531-3.3164-0.55469-4.8516-1.0781-1.6016-0.52344-2.5781-1.0781-2.9375-1.6641-0.71875-0.13281-1.5352-0.35938-2.4492-0.6875-1.1094-0.39062-2.0742-1.0273-2.8945-1.9102-0.71875-0.78516-1.3398-1.6367-1.8594-2.5508-1.1094-1.9922-1.6836-3.9727-1.7148-5.9297v-1.2266l0.097656-0.73438 0.24609-0.78516c0.39062-1.5039 1.2266-2.6484 2.4961-3.4336l-0.19531 0.097657c0.55469-0.32422 0.89844-0.50781 1.0273-0.53906l0.73438-0.24609c0.29688-0.03125 0.71875-0.082031 1.2734-0.14844 0.71875-0.097656 1.4844-0.11328 2.3047-0.050782 1.0781 0.03125 2.418 0.17969 4.0195 0.44141 0.65234 0.12891 1.2422 0.29297 1.7656 0.48828-0.03125-1.0781-0.11328-2.1406-0.24219-3.1875l-0.98047-4.1172c-2.2227-8.0078-3.707-13.742-4.4609-17.207-1.4023-6.3086-2.1523-11.945-2.2539-16.91-0.097657-2.418 0.082031-5.1797 0.53906-8.2852l1.5664-5.9336c0.55469-1.2734 0.85156-1.9453 0.88281-2.0078 1.4727-2.8125 3.4961-4.8555 6.0742-6.1289 0.94531-0.42578 1.6328-0.6875 2.0586-0.78516 0.65234-0.19531 1.0117-0.29688 1.0781-0.29688z" fill="#fff" fill-rule="evenodd"/>
</svg>
